# xmcd
#
# Track frame offsets: 
#        150
#        21524
#        39612
#        57436
#        73558
#        95471
#        115173
#        133828
#        152690
#        172042
#        192505
#        211956
#        231216
#        251544
#        273858
#        295415
#
# Disc length: 4192 seconds
#
# Revision: 0
# Processed by: cddbd v1.5.2PL0 Copyright (c) Steve Scherf et al.
# Submitted via: ExactAudioCopyFreeDBPlugin 1.0
#
DISCID=f2105e10
DTITLE=彭羚  - 彭羚 (LPCD 45)
DYEAR=2009
DGENRE=Country
TTITLE0=愛過痛過亦願等 
TTITLE1=完全因你 
TTITLE2=讓我跟你走 
TTITLE3=小玩意
TTITLE4=有著你……多麼美
TTITLE5=如夢初醒 
TTITLE6=彷如隔世 
TTITLE7=情難自制
TTITLE8=未完的小說
TTITLE9=如果得不到愛情 
TTITLE10=註定相愛
TTITLE11=仍然是最愛你 
TTITLE12=給天邊最愛的人
TTITLE13=彷彿是初戀 
TTITLE14=三人世界 
TTITLE15=等得太久 
EXTD=
EXTT0=
EXTT1=
EXTT2=
EXTT3=
EXTT4=
EXTT5=
EXTT6=
EXTT7=
EXTT8=
EXTT9=
EXTT10=
EXTT11=
EXTT12=
EXTT13=
EXTT14=
EXTT15=
PLAYORDER=
